<?xml version="1.0" encoding="UTF-8" standalone="no"?>
<!-- Created with Inkscape (http://www.inkscape.org/) -->

<svg
   width="512"
   height="512"
   viewBox="0 0 512 512"
   version="1.1"
   id="svg1"
   inkscape:version="1.3.2 (091e20e, 2023-11-25)"
   sodipodi:docname="AiE_Bot_Libra.svg"
   xmlns:inkscape="http://www.inkscape.org/namespaces/inkscape"
   xmlns:sodipodi="http://sodipodi.sourceforge.net/DTD/sodipodi-0.dtd"
   xmlns="http://www.w3.org/2000/svg"
   xmlns:svg="http://www.w3.org/2000/svg">
  <sodipodi:namedview
     id="namedview1"
     pagecolor="#505050"
     bordercolor="#eeeeee"
     borderopacity="1"
     inkscape:showpageshadow="0"
     inkscape:pageopacity="0"
     inkscape:pagecheckerboard="0"
     inkscape:deskcolor="#505050"
     inkscape:document-units="px"
     showgrid="false"
     inkscape:zoom="1.2650193"
     inkscape:cx="291.2999"
     inkscape:cy="259.67983"
     inkscape:window-width="1472"
     inkscape:window-height="896"
     inkscape:window-x="0"
     inkscape:window-y="32"
     inkscape:window-maximized="0"
     inkscape:current-layer="layer1">
    <inkscape:grid
       id="grid1"
       units="px"
       originx="0"
       originy="0"
       spacingx="16"
       spacingy="16"
       empcolor="#0099e5"
       empopacity="0.30196078"
       color="#0099e5"
       opacity="0.14901961"
       empspacing="4"
       dotted="false"
       gridanglex="30"
       gridanglez="30"
       visible="false" />
  </sodipodi:namedview>
  <defs
     id="defs1" />
  <g
     inkscape:label="Layer 1"
     inkscape:groupmode="layer"
     id="layer1">
    <path
       id="path5"
       style="color:#000000;fill:#999999;stroke-linecap:round;stroke-linejoin:round;-inkscape-stroke:none;fill-opacity:1"
       d="m 208,36 c 0,0 -37.83111,-0.163013 -76.34961,14.816406 -19.25925,7.489711 -39.046752,18.874208 -54.261718,36.625 C 62.173705,105.19219 52,129.42869 52,160 c 2.42e-4,0.26651 0.0094,0.53293 0.02734,0.79883 l 16,240 L 68,400 c 0,20.99992 13.808609,37.07852 30.826172,47.28906 17.017558,10.21054 38.066128,16.32766 58.820308,20.47852 C 199.15491,476.06926 240,476 240,476 c 0,0 48.69321,0.0492 97.97266,-8.16406 24.6397,-4.10664 49.4865,-10.1495 69.39453,-20.10352 9.95401,-4.97699 18.77412,-10.95881 25.49414,-18.79883 C 439.58131,421.0936 444,410.99996 444,400 l -0.0234,0.74805 16,-256 C 459.99211,144.499 459.99997,144.24953 460,144 460,115.00012 441.19134,92.921457 416.67383,78.210938 392.15628,63.500417 361.10766,54.383256 330.35352,48.232422 289.86816,40.135351 250.04979,37.433204 227.30078,36.507812 226.22957,36.185521 225.11855,36.014593 224,36 c -1.56786,0 -3.05499,0.137038 -4.57617,0.216797 C 212.25914,36.007695 208,36 208,36 Z m 10.70508,24.214844 c 19.61287,0.589631 63.41765,2.847982 106.9414,11.552734 29.24562,5.849118 58.1974,14.732114 78.67969,27.021484 20.41989,12.251938 31.59219,26.131758 31.66016,45.042968 L 420.02344,399.25195 C 420.00784,399.501 420,399.75047 420,400 c 0,5 -1.58135,8.90644 -5.36133,13.31641 -3.77994,4.40994 -9.95995,8.9282 -18.00586,12.95117 -16.09181,8.0459 -39.24537,14.00315 -62.60547,17.89648 C 287.30715,451.95075 240,452 240,452 212.00012,452 201.30133,439.7706 194.73242,426.63281 188.16354,413.49505 188,400 188,400 c -2.4e-4,-0.26651 -0.009,-0.53293 -0.0273,-0.79883 l -16,-240 c -0.02,-0.30055 -0.0512,-0.60024 -0.0937,-0.89844 0,0 -3.57215,-26.46021 1.85547,-51.78906 2.71379,-12.664405 7.64659,-24.596261 15.30859,-32.847654 6.83423,-7.360035 15.64078,-12.434549 29.66211,-13.451172 z M 120,182.40039 c 11.95218,0 22.74575,5.15158 30.35547,13.30664 l 3.48828,52.33203 c -7.56376,10.59292 -19.92538,17.56055 -33.84375,17.56055 -17.54001,0 -32.615962,-11.04793 -38.701172,-26.50781 L 79.636719,214.16016 C 84.098684,196.00752 100.53122,182.40039 120,182.40039 Z m 0,19.19922 c -12.48485,0 -22.400391,9.91554 -22.400391,22.40039 0,12.48485 9.915541,22.40039 22.400391,22.40039 12.48485,0 22.40039,-9.91554 22.40039,-22.40039 0,-12.48485 -9.91554,-22.40039 -22.40039,-22.40039 z"
       sodipodi:nodetypes="cssccccsscsssccccsscccccssccsssscsccccsccsccsccssssss" />
    <path
       style="fill:#999999;fill-opacity:1;stroke:none;stroke-width:24;stroke-linecap:round;stroke-linejoin:round;stroke-dasharray:none"
       d="m 144,464 v 48 h 224 v -64 l -112,16 z"
       id="path2" />
    <path
       style="fill:none;stroke:#999999;stroke-width:24;stroke-linecap:butt;stroke-linejoin:miter;stroke-opacity:1;fill-opacity:1"
       d="m 208,224 h 48 c 0,-48 48,-48 48,-48 0,0 48,0 48,48 h 48"
       id="path1"
       sodipodi:nodetypes="ccccc" />
    <path
       style="fill:#999999;stroke:#999999;stroke-width:24;stroke-linecap:butt;stroke-linejoin:miter;stroke-opacity:1;fill-opacity:1"
       d="M 208,288 H 400"
       id="path3"
       sodipodi:nodetypes="cc" />
  </g>
</svg>
